####
#
# OBJ File Generated by Meshlab
#
####
# Object aligned.obj
#
# Vertices: 8
# Faces: 12
#
####
vn 0.599842 2.120017 1.596221
v 0.025935 0.069098 0.015278 0.752941 0.752941 0.752941
vn -2.173503 0.647097 1.503114
v -0.071171 0.017525 0.012018 0.752941 0.752941 0.752941
vn 2.072222 -0.654880 1.636836
v 0.067647 -0.009514 0.016429 0.752941 0.752941 0.752941
vn -0.701123 -2.127800 1.543729
v -0.029459 -0.061087 0.013168 0.752941 0.752941 0.752941
vn 0.701123 2.127800 -1.543729
v 0.027064 0.069185 -0.019704 0.752941 0.752941 0.752941
vn -2.072222 0.654880 -1.636836
v -0.070042 0.017612 -0.022964 0.752941 0.752941 0.752941
vn 2.173503 -0.647097 -1.503114
v 0.068776 -0.009427 -0.018553 0.752941 0.752941 0.752941
vn -0.599842 -2.120017 -1.596221
v -0.028331 -0.061000 -0.021813 0.752941 0.752941 0.752941
# 8 vertices, 0 vertices normals

f 1//1 2//2 3//3
f 4//4 3//3 2//2
f 1//1 3//3 5//5
f 7//7 5//5 3//3
f 1//1 5//5 2//2
f 6//6 2//2 5//5
f 8//8 6//6 7//7
f 5//5 7//7 6//6
f 8//8 7//7 4//4
f 3//3 4//4 7//7
f 8//8 4//4 6//6
f 2//2 6//6 4//4
# 12 faces, 0 coords texture

# End of File