####
#
# OBJ File Generated by Meshlab
#
####
# Object box_unaligned.obj
#
# Vertices: 8
# Faces: 12
#
####
vn 0.907574 0.734310 0.288773
v 0.055000 0.044500 0.017500
vn -0.523988 0.847908 0.333447
v -0.055000 0.044500 0.017500
vn 1.047976 -0.423954 0.333447
v 0.055000 -0.044500 0.017500
vn -1.047976 -0.847908 0.166723
v -0.055000 -0.044500 0.017500
vn 1.047976 0.847908 -0.166723
v 0.055000 0.044500 -0.017500
vn -1.047976 0.423954 -0.333447
v -0.055000 0.044500 -0.017500
vn 0.523988 -0.847908 -0.333447
v 0.055000 -0.044500 -0.017500
vn -0.907574 -0.734310 -0.288773
v -0.055000 -0.044500 -0.017500
# 8 vertices, 0 vertices normals

f 1//1 2//2 3//3
f 4//4 3//3 2//2
f 1//1 3//3 5//5
f 7//7 5//5 3//3
f 1//1 5//5 2//2
f 6//6 2//2 5//5
f 8//8 6//6 7//7
f 5//5 7//7 6//6
f 8//8 7//7 4//4
f 3//3 4//4 7//7
f 8//8 4//4 6//6
f 2//2 6//6 4//4
# 12 faces, 0 coords texture

# End of File