####
#
# OBJ File Generated by Meshlab
#
####
# Object aligned.obj
#
# Vertices: 8
# Faces: 12
#
####
vn -1.691242 1.424580 1.585078
v -0.053899 0.021373 0.037210 0.752941 0.752941 0.752941
vn -1.438877 -1.706718 1.555297
v -0.049882 -0.028463 0.036736 0.752941 0.752941 0.752941
vn 1.440197 1.676947 1.586154
v 0.042788 0.029165 0.037243 0.752941 0.752941 0.752941
vn 1.692562 -1.454351 1.556373
v 0.046804 -0.020671 0.036769 0.752941 0.752941 0.752941
vn -1.692562 1.454351 -1.556373
v -0.053936 0.022216 -0.051786 0.752941 0.752941 0.752941
vn -1.440197 -1.676947 -1.586154
v -0.049919 -0.027620 -0.052260 0.752941 0.752941 0.752941
vn 1.438877 1.706718 -1.555297
v 0.042751 0.030008 -0.051753 0.752941 0.752941 0.752941
vn 1.691242 -1.424580 -1.585078
v 0.046767 -0.019828 -0.052227 0.752941 0.752941 0.752941
# 8 vertices, 0 vertices normals

f 1//1 2//2 3//3
f 4//4 3//3 2//2
f 1//1 3//3 5//5
f 7//7 5//5 3//3
f 1//1 5//5 2//2
f 6//6 2//2 5//5
f 8//8 6//6 7//7
f 5//5 7//7 6//6
f 8//8 7//7 4//4
f 3//3 4//4 7//7
f 8//8 4//4 6//6
f 2//2 6//6 4//4
# 12 faces, 0 coords texture

# End of File